<svg xmlns="http://www.w3.org/2000/svg" viewBox="0 0 474.96 158.04"><defs><style>.cls-1{fill:#231f20;}.cls-2{fill:#fff;}</style></defs><g id="Layer_2" data-name="Layer 2"><g id="Layer_10" data-name="Layer 10"><path class="cls-1" d="M3.69,90.46H60.87c9.91,0,38.62,3.43,38.62-24.9,0-8.64-3.68-15.5-12.32-19.44C94.79,42.31,97.72,36,97.72,26.94,97.72-1.4,70.78,1.52,60.87,1.52H3.69A3.15,3.15,0,0,0,.52,4.7V87.29A3.15,3.15,0,0,0,3.69,90.46ZM42.45,25c0-6.1,10.16-6,10.16.13v9.53c0,5.84-10.16,5.59-10.16,0Zm0,32.78c0-7.37,11.3-7.24,11.3,0v8c0,7.5-11.3,7.5-11.3.13Z"/><rect class="cls-1" x="105.33" y="48.89" width="42.47" height="41.84" rx="3.22"/><path class="cls-1" d="M245,44.47H210.66a3.15,3.15,0,0,0-3.17,3.18V63.4c0,6.86-10.17,6.86-10.17,0V44.09c0-9.4,6.61-10.42,17.41-10.42A150.52,150.52,0,0,1,240.52,36a3.44,3.44,0,0,0,4.19-3.43V7a2.86,2.86,0,0,0-1.9-2.8C233.79,1.27,213.33,0,202.53,0,163.65,0,155.4,15.63,155.4,33.54v30C155.4,83,163.65,92,202.53,92c20.59,0,36.72-2.67,44.85-6.23.51-.25.77-1.14.77-2.29V47.65A3.15,3.15,0,0,0,245,44.47Z"/><path class="cls-1" d="M422.93,1.89h-38.7a3.13,3.13,0,0,0-3.17,3.17V87.54a3.14,3.14,0,0,0,3.17,3.18h35.53a3.14,3.14,0,0,0,3.17-3.18V66.1c39.09,0,52-3,52-33.38C475,4.3,462,1.89,422.93,1.89Zm9.54,37.57c0,5.8-8.92,5.91-8.92,0V28.53c0-6.14,8.92-5.58,8.92.11Z"/><circle class="cls-1" cx="126.56" cy="21.93" r="20.92"/><path class="cls-1" d="M370.27,1.89h-36a3.2,3.2,0,0,0-3.2,3.2V64.28a4.69,4.69,0,0,1-4.4,4.74,4.61,4.61,0,0,1-4.83-4.61V5.09a3.2,3.2,0,0,0-3.2-3.2h-36a3.17,3.17,0,0,0-3.17,3.17V63.31c0,19.41,9.64,28.93,47.08,28.93s46.83-9.52,46.83-28.93V5.06A3.17,3.17,0,0,0,370.27,1.89Z"/><rect class="cls-1" y="105.51" width="423.55" height="52.53" rx="7.21"/><path class="cls-2" d="M31.32,147.3a19.16,19.16,0,0,1-5.42-.66,12,12,0,0,1-3.35-1.46c-.79-.54-1.19-1.08-1.19-1.61a3.36,3.36,0,0,1,.47-1.55,7.33,7.33,0,0,1,1.1-1.55,1.73,1.73,0,0,1,1.06-.68,1.08,1.08,0,0,1,.49.15l.7.36q.84.42,2.1.93a8.24,8.24,0,0,0,4.79.28,3.13,3.13,0,0,0,1.52-.89,2.6,2.6,0,0,0,.62-1.85,2.46,2.46,0,0,0-1-2,10.08,10.08,0,0,0-2.48-1.36c-1-.39-2-.84-3.07-1.35a14.85,14.85,0,0,1-2.12-1.21,9.47,9.47,0,0,1-1.85-1.68,7.1,7.1,0,0,1-1.29-2.35A10.31,10.31,0,0,1,22,125.5a7.77,7.77,0,0,1,1.49-4.94,8.61,8.61,0,0,1,3.79-2.75,13.43,13.43,0,0,1,4.77-.87,17.25,17.25,0,0,1,2.8.21,13,13,0,0,1,2.27.57,6.86,6.86,0,0,1,1.63.83,1.82,1.82,0,0,1,.93,1.36,4,4,0,0,1-.36,1.44,6,6,0,0,1-.91,1.57,1.49,1.49,0,0,1-1.06.68,1.51,1.51,0,0,1-.57-.17,9.29,9.29,0,0,0-.95-.38,7.29,7.29,0,0,0-1.34-.37,10.94,10.94,0,0,0-1.84-.14,6.29,6.29,0,0,0-2.51.38,2.29,2.29,0,0,0-1.14.93,2.22,2.22,0,0,0-.3,1.06,2.84,2.84,0,0,0,.64,1.89,5.21,5.21,0,0,0,1.65,1.25q1,.51,2.25,1c.88.36,1.77.77,2.67,1.2a11.6,11.6,0,0,1,2.5,1.64,7.19,7.19,0,0,1,1.85,2.46,8.59,8.59,0,0,1,.7,3.64,10.36,10.36,0,0,1-.83,4.37,7.46,7.46,0,0,1-2.23,2.86,9.22,9.22,0,0,1-3.09,1.57A12.6,12.6,0,0,1,31.32,147.3Z"/><path class="cls-2" d="M89.67,147c-1.69,0-2.54-.45-2.54-1.35V122.83H80.39c-.85,0-1.27-.7-1.27-2.12V119.4c0-1.41.42-2.12,1.27-2.12h20c.85,0,1.27.71,1.27,2.12v1.31c0,1.42-.42,2.12-1.27,2.12H93.7v22.86c0,.9-.85,1.35-2.54,1.35Z"/><path class="cls-2" d="M149.7,147.3c-3.88,0-6.89-.9-9-2.7A9.25,9.25,0,0,1,137.4,137V118.55c0-.9.85-1.36,2.55-1.36h1.44c1.69,0,2.54.46,2.54,1.36v18.06a4.92,4.92,0,0,0,.72,2.65,4.82,4.82,0,0,0,2,1.82,7.24,7.24,0,0,0,6,0,5,5,0,0,0,2-1.82,4.77,4.77,0,0,0,.75-2.65V118.55c0-.9.84-1.36,2.54-1.36h1.4c1.69,0,2.54.46,2.54,1.36V137a9.27,9.27,0,0,1-3.24,7.56Q155.51,147.3,149.7,147.3Z"/><path class="cls-2" d="M203,147a1.5,1.5,0,0,1-1.69-1.7V119a1.5,1.5,0,0,1,1.69-1.7H212a14.72,14.72,0,0,1,7.39,1.72,11,11,0,0,1,4.6,5,18.75,18.75,0,0,1,1.57,8.1,20.53,20.53,0,0,1-.89,6.36,12.26,12.26,0,0,1-2.63,4.64,11.17,11.17,0,0,1-4.26,2.86,16,16,0,0,1-5.78,1Zm4.88-5.56H212a6.51,6.51,0,0,0,3.81-1.06,6.3,6.3,0,0,0,2.29-3.13,17.42,17.42,0,0,0,0-10.18,6.38,6.38,0,0,0-2.29-3.14,6.58,6.58,0,0,0-3.81-1.06h-4.2Z"/><path class="cls-2" d="M272,147.08c-1.7,0-2.55-.46-2.55-1.39V118.55c0-.93.85-1.4,2.55-1.4h1.48c1.69,0,2.54.47,2.54,1.4v27.14c0,.93-.85,1.39-2.54,1.39Z"/><path class="cls-2" d="M332,147.3q-6.52,0-10.07-3.93t-3.54-11.25q0-7.34,3.54-11.26T332,116.94q6.57,0,10.07,3.92t3.5,11.26q0,7.33-3.5,11.25T332,147.3Zm0-5.56a5.85,5.85,0,0,0,5.13-2.48q1.74-2.47,1.74-7.14T337.14,125a6.6,6.6,0,0,0-10.28,0q-1.75,2.46-1.76,7.12t1.76,7.14A5.9,5.9,0,0,0,332,141.74Z"/><path class="cls-2" d="M391.46,147.3a19.18,19.18,0,0,1-5.43-.66,12.17,12.17,0,0,1-3.35-1.46c-.79-.54-1.18-1.08-1.18-1.61A3.33,3.33,0,0,1,382,142a7,7,0,0,1,1.11-1.55c.42-.45.77-.68,1.06-.68a1,1,0,0,1,.48.15l.7.36q.85.42,2.1.93a7.82,7.82,0,0,0,2.95.51,7.66,7.66,0,0,0,1.84-.23,3.11,3.11,0,0,0,1.53-.89,2.6,2.6,0,0,0,.61-1.85,2.45,2.45,0,0,0-1-2,10.08,10.08,0,0,0-2.48-1.36c-1-.39-2-.84-3.07-1.35a14.32,14.32,0,0,1-2.12-1.21,9.47,9.47,0,0,1-1.85-1.68,7.1,7.1,0,0,1-1.29-2.35,10.31,10.31,0,0,1-.47-3.29,7.77,7.77,0,0,1,1.49-4.94,8.55,8.55,0,0,1,3.79-2.75,13.43,13.43,0,0,1,4.77-.87,17.25,17.25,0,0,1,2.8.21,13,13,0,0,1,2.27.57,7.06,7.06,0,0,1,1.63.83,1.82,1.82,0,0,1,.93,1.36,4,4,0,0,1-.36,1.44,6,6,0,0,1-.91,1.57,1.49,1.49,0,0,1-1.06.68,1.51,1.51,0,0,1-.57-.17,8.71,8.71,0,0,0-1-.38,7,7,0,0,0-1.33-.37,11.07,11.07,0,0,0-1.85-.14,6.27,6.27,0,0,0-2.5.38,2.14,2.14,0,0,0-1.44,2,2.79,2.79,0,0,0,.64,1.89,5.21,5.21,0,0,0,1.65,1.25q1,.51,2.25,1c.87.36,1.76.77,2.67,1.2a11.85,11.85,0,0,1,2.5,1.64,7.17,7.17,0,0,1,1.84,2.46A8.44,8.44,0,0,1,401,138a10.36,10.36,0,0,1-.82,4.37,7.55,7.55,0,0,1-2.23,2.86,9.17,9.17,0,0,1-3.1,1.57A12.53,12.53,0,0,1,391.46,147.3Z"/></g></g></svg>