<svg xmlns="http://www.w3.org/2000/svg" viewBox="0 0 231.92 260.05"><defs><style>.cls-1{fill:#231f20;}.cls-2{fill:#fff;}</style></defs><g id="Layer_2" data-name="Layer 2"><g id="Layer_10" data-name="Layer 10"><path class="cls-1" d="M3,84.73H56.52c9.28,0,36.18,3.21,36.18-23.33,0-8.09-3.45-14.52-11.55-18.2,7.14-3.57,9.88-9.52,9.88-18C91-1.31,65.8,1.43,56.52,1.43H3a3,3,0,0,0-3,3V81.75A3,3,0,0,0,3,84.73Zm36.3-61.29c0-5.71,9.52-5.59,9.52.12v8.93c0,5.47-9.52,5.23-9.52,0Zm0,30.7c0-6.9,10.59-6.78,10.59,0v7.5c0,7-10.59,7-10.59.12Z"/><rect class="cls-1" x="98.16" y="45.79" width="39.77" height="39.19" rx="3.01"/><path class="cls-1" d="M229,41.65H196.82a3,3,0,0,0-3,3V59.38c0,6.42-9.52,6.42-9.52,0V41.29c0-8.8,6.19-9.76,16.3-9.76a141,141,0,0,1,24.16,2.15,3.24,3.24,0,0,0,3.93-3.22V6.54a2.66,2.66,0,0,0-1.79-2.61C218.47,1.19,199.32,0,189.2,0c-36.41,0-44.15,14.64-44.15,31.41V59.5c0,18.2,7.74,26.65,44.15,26.65,19.28,0,34.39-2.5,42-5.83.47-.24.71-1.07.71-2.14V44.62A3,3,0,0,0,229,41.65Z"/><path class="cls-1" d="M170.17,94.31H124.24a3.73,3.73,0,0,0-3.76,3.77V196a3.72,3.72,0,0,0,3.76,3.76h42.17a3.72,3.72,0,0,0,3.76-3.76V170.51c46.39,0,61.75-3.61,61.75-39.6C231.92,97.17,216.56,94.31,170.17,94.31Zm11.32,44.59c0,6.88-10.59,7-10.59,0v-13c0-7.29,10.59-6.62,10.59.13Z"/><circle class="cls-1" cx="118.05" cy="20.54" r="19.59"/><path class="cls-1" d="M107.68,94.31H65a3.8,3.8,0,0,0-3.8,3.8v70.25A5.57,5.57,0,0,1,56,174a5.46,5.46,0,0,1-5.74-5.46V98.11a3.8,3.8,0,0,0-3.8-3.8H3.76A3.77,3.77,0,0,0,0,98.08V167.2c0,23,11.45,34.34,55.87,34.34s55.57-11.3,55.57-34.34V98.08A3.76,3.76,0,0,0,107.68,94.31Z"/><rect class="cls-1" y="217.39" width="230.59" height="42.67" rx="4.8"/><path class="cls-2" d="M20.91,252.23a17.13,17.13,0,0,1-4.83-.59,10.44,10.44,0,0,1-3-1.3c-.71-.48-1.06-1-1.06-1.43a3,3,0,0,1,.42-1.38,6.5,6.5,0,0,1,1-1.38,1.51,1.51,0,0,1,.94-.6.88.88,0,0,1,.43.13l.63.32c.5.25,1.12.53,1.87.83a6.93,6.93,0,0,0,2.62.46,6.53,6.53,0,0,0,1.64-.21,2.79,2.79,0,0,0,1.36-.79,2.34,2.34,0,0,0,.54-1.65,2.21,2.21,0,0,0-.86-1.81,8.94,8.94,0,0,0-2.21-1.2c-.89-.36-1.81-.76-2.74-1.21a12.17,12.17,0,0,1-1.88-1.08,8,8,0,0,1-1.64-1.49A6.22,6.22,0,0,1,13,235.76a9.37,9.37,0,0,1-.41-2.93,6.89,6.89,0,0,1,1.32-4.39A7.68,7.68,0,0,1,17.27,226a12.05,12.05,0,0,1,4.24-.77,14.66,14.66,0,0,1,2.49.19,12.13,12.13,0,0,1,2,.51,5.44,5.44,0,0,1,1.45.74,1.59,1.59,0,0,1,.83,1.2,3.52,3.52,0,0,1-.32,1.29,5.29,5.29,0,0,1-.81,1.39,1.32,1.32,0,0,1-.94.61,1.16,1.16,0,0,1-.51-.16,8.55,8.55,0,0,0-.85-.33,6.67,6.67,0,0,0-1.19-.33,9.65,9.65,0,0,0-1.64-.13,5.82,5.82,0,0,0-2.23.34,2.07,2.07,0,0,0-1,.83,2,2,0,0,0-.27.95A2.47,2.47,0,0,0,19.1,234a4.58,4.58,0,0,0,1.47,1.12c.6.3,1.27.6,2,.9s1.57.69,2.38,1.08a10.47,10.47,0,0,1,2.22,1.45,6.37,6.37,0,0,1,1.64,2.19,7.5,7.5,0,0,1,.63,3.25,9.2,9.2,0,0,1-.74,3.88,6.7,6.7,0,0,1-2,2.55A8,8,0,0,1,24,251.79,10.92,10.92,0,0,1,20.91,252.23Z"/><path class="cls-2" d="M51.31,252c-1.51,0-2.27-.4-2.27-1.2V230.46H43c-.75,0-1.13-.63-1.13-1.89V227.4c0-1.26.38-1.89,1.13-1.89H60.89c.76,0,1.13.63,1.13,1.89v1.17c0,1.26-.37,1.89-1.13,1.89h-6V250.8c0,.8-.75,1.2-2.26,1.2Z"/><path class="cls-2" d="M84.2,252.23q-5.17,0-8.06-2.4a8.24,8.24,0,0,1-2.89-6.73V226.65c0-.81.76-1.21,2.27-1.21H76.8c1.51,0,2.26.4,2.26,1.21v16.07a4.38,4.38,0,0,0,.65,2.36,4.33,4.33,0,0,0,1.81,1.62,5.91,5.91,0,0,0,2.68.59,5.83,5.83,0,0,0,2.69-.59,4.52,4.52,0,0,0,1.81-1.62,4.3,4.3,0,0,0,.66-2.36V226.65c0-.81.76-1.21,2.27-1.21h1.24c1.51,0,2.27.4,2.27,1.21V243.1a8.24,8.24,0,0,1-2.89,6.73C90.33,251.43,87.64,252.23,84.2,252.23Z"/><path class="cls-2" d="M110.11,251.93a1.34,1.34,0,0,1-1.51-1.51V227a1.34,1.34,0,0,1,1.51-1.51h8.07a13.19,13.19,0,0,1,6.59,1.53,9.88,9.88,0,0,1,4.09,4.47,16.79,16.79,0,0,1,1.4,7.21,18.32,18.32,0,0,1-.8,5.66,10.72,10.72,0,0,1-2.34,4.13,9.92,9.92,0,0,1-3.79,2.55,14.14,14.14,0,0,1-5.15.87Zm4.34-5h3.73a5.82,5.82,0,0,0,3.4-.94,5.73,5.73,0,0,0,2-2.79,15.65,15.65,0,0,0,0-9.06,5.73,5.73,0,0,0-2-2.79,5.82,5.82,0,0,0-3.4-.94h-3.73Z"/><path class="cls-2" d="M147,252c-1.51,0-2.26-.41-2.26-1.24V226.65c0-.83.75-1.25,2.26-1.25h1.32c1.51,0,2.27.42,2.27,1.25V250.8c0,.83-.76,1.24-2.27,1.24Z"/><path class="cls-2" d="M174.9,252.23q-5.82,0-9-3.49t-3.15-10q0-6.53,3.15-10t9-3.49q5.83,0,9,3.49t3.11,10q0,6.53-3.11,10T174.9,252.23Zm0-4.94a5.21,5.21,0,0,0,4.56-2.21,13.78,13.78,0,0,0,0-12.7,5.22,5.22,0,0,0-4.56-2.19,5.28,5.28,0,0,0-4.59,2.19,13.7,13.7,0,0,0,0,12.7A5.27,5.27,0,0,0,174.9,247.29Z"/><path class="cls-2" d="M208.28,252.23a17,17,0,0,1-4.83-.59,10.31,10.31,0,0,1-3-1.3c-.71-.48-1.06-1-1.06-1.43a3.09,3.09,0,0,1,.41-1.38,7.3,7.3,0,0,1,1-1.38,1.55,1.55,0,0,1,.95-.6.91.91,0,0,1,.43.13l.62.32c.51.25,1.13.53,1.87.83a7,7,0,0,0,2.63.46,6.53,6.53,0,0,0,1.64-.21,2.72,2.72,0,0,0,1.35-.79,2.3,2.3,0,0,0,.55-1.65,2.19,2.19,0,0,0-.87-1.81,8.69,8.69,0,0,0-2.2-1.2c-.9-.36-1.81-.76-2.74-1.21a12.76,12.76,0,0,1-1.89-1.08,8.23,8.23,0,0,1-1.64-1.49,6.38,6.38,0,0,1-1.15-2.09,9.09,9.09,0,0,1-.41-2.93,6.89,6.89,0,0,1,1.32-4.39,7.62,7.62,0,0,1,3.38-2.46,12.05,12.05,0,0,1,4.24-.77,14.66,14.66,0,0,1,2.49.19,12.13,12.13,0,0,1,2,.51,5.6,5.6,0,0,1,1.45.74,1.62,1.62,0,0,1,.83,1.2,3.74,3.74,0,0,1-.32,1.29,5.29,5.29,0,0,1-.81,1.39,1.34,1.34,0,0,1-.94.61,1.16,1.16,0,0,1-.51-.16c-.22-.1-.5-.21-.85-.33a6.67,6.67,0,0,0-1.19-.33,9.73,9.73,0,0,0-1.64-.13,5.78,5.78,0,0,0-2.23.34,2.15,2.15,0,0,0-1,.83,2.06,2.06,0,0,0-.26.95,2.47,2.47,0,0,0,.57,1.67,4.47,4.47,0,0,0,1.47,1.12c.6.3,1.27.6,2,.9s1.57.69,2.37,1.08a10.29,10.29,0,0,1,2.23,1.45,6.37,6.37,0,0,1,1.64,2.19,7.51,7.51,0,0,1,.62,3.25,9.2,9.2,0,0,1-.73,3.88,6.7,6.7,0,0,1-2,2.55,8,8,0,0,1-2.76,1.39A10.92,10.92,0,0,1,208.28,252.23Z"/></g></g></svg>