<?xml version="1.0" encoding="UTF-8"?><svg xmlns="http://www.w3.org/2000/svg" viewBox="0 0 474.96 158.04"><defs><style>.d{fill:#fff;}.e{fill:#ff7300;}.f{fill:#ffc931;}.g{fill:#00dbdb;}.h{fill:#1436dd;}</style></defs><g id="a"/><g id="b"><g id="c"><g><g><path class="e" d="M3.69,90.46H60.87c9.91,0,38.62,3.43,38.62-24.9,0-8.64-3.68-15.5-12.32-19.44,7.62-3.81,10.55-10.16,10.55-19.19C97.72-1.4,70.78,1.52,60.87,1.52H3.69C1.92,1.52,.52,2.92,.52,4.7V87.29c0,1.78,1.4,3.18,3.18,3.18ZM42.45,25.03c0-6.1,10.16-5.97,10.16,.13v9.53c0,5.84-10.16,5.59-10.16,0v-9.66Zm0,32.78c0-7.37,11.31-7.24,11.31,0v8c0,7.5-11.31,7.5-11.31,.13v-8.13Z"/><rect class="g" x="105.33" y="48.89" width="42.47" height="41.84" rx="3.22" ry="3.22"/><path class="f" d="M244.97,44.47h-34.3c-1.78,0-3.18,1.4-3.18,3.18v15.76c0,6.86-10.16,6.86-10.16,0v-19.31c0-9.4,6.61-10.42,17.41-10.42,5.97,0,14.74,.38,25.79,2.29,2.29,.38,4.19-1.14,4.19-3.43V6.99c0-1.27-.64-2.29-1.91-2.8-9.02-2.92-29.48-4.19-40.28-4.19-38.88,0-47.14,15.63-47.14,33.54v29.98c0,19.44,8.26,28.46,47.14,28.46,20.58,0,36.72-2.67,44.85-6.23,.51-.25,.76-1.14,.76-2.29V47.65c0-1.78-1.4-3.18-3.18-3.18Z"/><path class="f" d="M422.93,1.89h-38.71c-1.78,0-3.17,1.4-3.17,3.17V87.54c0,1.78,1.4,3.17,3.17,3.17h35.53c1.78,0,3.17-1.4,3.17-3.17v-21.45c39.09,0,52.03-3.05,52.03-33.38,0-28.43-12.94-30.84-52.03-30.84Zm9.54,37.57c0,5.8-8.92,5.91-8.92,0v-10.93c0-6.14,8.92-5.58,8.92,.11v10.82Z"/><circle class="f" cx="126.56" cy="21.93" r="20.92"/><path class="e" d="M370.27,1.89h-35.97c-1.77,0-3.2,1.43-3.2,3.2v59.2c0,2.48-1.91,4.62-4.39,4.74-2.65,.12-4.84-1.99-4.84-4.61V5.09c0-1.77-1.43-3.2-3.2-3.2h-35.97c-1.75,0-3.17,1.42-3.17,3.17V63.31c0,19.42,9.64,28.93,47.08,28.93s46.83-9.52,46.83-28.93V5.06c0-1.75-1.42-3.17-3.17-3.17Z"/></g><g><rect class="h" y="105.51" width="423.55" height="52.53" rx="7.21" ry="7.21"/><g><path class="d" d="M31.32,147.3c-2.15,0-3.96-.22-5.43-.66-1.47-.44-2.59-.93-3.35-1.46-.79-.54-1.19-1.07-1.19-1.61,0-.45,.15-.97,.47-1.55,.31-.58,.68-1.09,1.1-1.55,.42-.45,.78-.68,1.06-.68,.14,0,.3,.05,.49,.15,.18,.1,.42,.22,.7,.36,.57,.28,1.27,.59,2.1,.93,.83,.34,1.82,.51,2.95,.51,.62,0,1.24-.08,1.84-.23,.61-.15,1.12-.45,1.53-.89,.41-.44,.61-1.05,.61-1.84,0-.85-.33-1.53-.98-2.03-.65-.51-1.48-.96-2.48-1.36-1-.4-2.03-.85-3.07-1.36-.74-.34-1.44-.74-2.12-1.21-.68-.47-1.29-1.02-1.84-1.68-.55-.65-.98-1.43-1.29-2.35-.31-.92-.47-2.01-.47-3.29,0-2.03,.49-3.68,1.48-4.94,.99-1.26,2.25-2.18,3.8-2.76,1.54-.58,3.13-.87,4.77-.87,1.02,0,1.95,.07,2.8,.21,.85,.14,1.6,.33,2.27,.57,.66,.24,1.21,.52,1.63,.83,.62,.45,.93,.9,.93,1.36,0,.37-.12,.85-.36,1.44-.24,.59-.54,1.12-.91,1.57-.37,.45-.72,.68-1.06,.68-.14,0-.33-.06-.57-.17-.24-.11-.56-.24-.95-.38-.37-.14-.81-.26-1.34-.36-.52-.1-1.14-.15-1.84-.15-1.1,0-1.94,.13-2.5,.38-.57,.25-.95,.56-1.14,.93-.2,.37-.3,.72-.3,1.06,0,.76,.21,1.39,.64,1.89,.42,.49,.98,.91,1.65,1.25s1.43,.68,2.25,1.02c.88,.37,1.77,.77,2.67,1.21,.9,.44,1.74,.98,2.5,1.63,.76,.65,1.38,1.47,1.84,2.46,.47,.99,.7,2.2,.7,3.65,0,1.72-.28,3.18-.83,4.37-.55,1.19-1.29,2.14-2.23,2.86-.93,.72-1.96,1.24-3.1,1.57s-2.28,.49-3.43,.49Z"/><path class="d" d="M89.67,147.04c-1.7,0-2.54-.45-2.54-1.36v-22.85h-6.74c-.85,0-1.27-.71-1.27-2.12v-1.31c0-1.41,.42-2.12,1.27-2.12h20.05c.85,0,1.27,.71,1.27,2.12v1.31c0,1.41-.42,2.12-1.27,2.12h-6.74v22.85c0,.9-.85,1.36-2.54,1.36h-1.48Z"/><path class="d" d="M149.7,147.3c-3.87,0-6.89-.9-9.05-2.69-2.16-1.79-3.24-4.32-3.24-7.57v-18.49c0-.9,.85-1.36,2.54-1.36h1.44c1.7,0,2.54,.45,2.54,1.36v18.06c0,.99,.24,1.87,.72,2.65,.48,.78,1.16,1.39,2.03,1.82,.88,.44,1.88,.66,3.01,.66s2.17-.22,3.03-.66c.86-.44,1.54-1.05,2.03-1.82,.49-.78,.74-1.66,.74-2.65v-18.06c0-.9,.85-1.36,2.54-1.36h1.4c1.7,0,2.54,.45,2.54,1.36v18.49c0,3.25-1.08,5.77-3.24,7.57-2.16,1.8-5.18,2.69-9.05,2.69Z"/><path class="d" d="M202.95,146.96c-1.13,0-1.7-.56-1.7-1.7v-26.29c0-1.13,.56-1.7,1.7-1.7h9.07c2.91,0,5.38,.57,7.4,1.72,2.02,1.14,3.55,2.82,4.6,5.02,1.05,2.2,1.57,4.9,1.57,8.1,0,2.4-.3,4.52-.89,6.36-.59,1.84-1.47,3.38-2.63,4.64s-2.58,2.21-4.26,2.86c-1.68,.65-3.61,.98-5.79,.98h-9.07Zm4.88-5.55h4.2c1.53,0,2.8-.35,3.82-1.06,1.02-.71,1.78-1.75,2.29-3.14,.51-1.38,.76-3.08,.76-5.09s-.25-3.7-.76-5.09c-.51-1.38-1.27-2.43-2.29-3.14s-2.29-1.06-3.82-1.06h-4.2v18.57Z"/><path class="d" d="M271.97,147.08c-1.7,0-2.54-.47-2.54-1.4v-27.13c0-.93,.85-1.4,2.54-1.4h1.48c1.7,0,2.54,.47,2.54,1.4v27.13c0,.93-.85,1.4-2.54,1.4h-1.48Z"/><path class="d" d="M332.01,147.3c-4.35,0-7.71-1.31-10.07-3.92-2.36-2.61-3.54-6.37-3.54-11.26s1.18-8.64,3.54-11.26c2.36-2.61,5.72-3.92,10.07-3.92s7.74,1.31,10.07,3.92c2.33,2.62,3.5,6.37,3.5,11.26s-1.17,8.64-3.5,11.26c-2.33,2.61-5.69,3.92-10.07,3.92Zm0-5.55c2.26,0,3.97-.83,5.13-2.48,1.16-1.65,1.74-4.03,1.74-7.14s-.58-5.48-1.74-7.12c-1.16-1.64-2.87-2.46-5.13-2.46s-3.98,.82-5.15,2.46c-1.17,1.64-1.76,4.01-1.76,7.12s.59,5.49,1.76,7.14c1.17,1.65,2.89,2.48,5.15,2.48Z"/><path class="d" d="M391.46,147.3c-2.15,0-3.96-.22-5.43-.66-1.47-.44-2.59-.93-3.35-1.46-.79-.54-1.19-1.07-1.19-1.61,0-.45,.15-.97,.47-1.55,.31-.58,.68-1.09,1.1-1.55,.42-.45,.78-.68,1.06-.68,.14,0,.3,.05,.49,.15,.18,.1,.42,.22,.7,.36,.57,.28,1.27,.59,2.1,.93,.83,.34,1.82,.51,2.95,.51,.62,0,1.24-.08,1.84-.23,.61-.15,1.12-.45,1.53-.89,.41-.44,.61-1.05,.61-1.84,0-.85-.33-1.53-.98-2.03-.65-.51-1.48-.96-2.48-1.36-1-.4-2.03-.85-3.07-1.36-.74-.34-1.44-.74-2.12-1.21-.68-.47-1.29-1.02-1.84-1.68-.55-.65-.98-1.43-1.29-2.35-.31-.92-.47-2.01-.47-3.29,0-2.03,.49-3.68,1.48-4.94,.99-1.26,2.25-2.18,3.8-2.76,1.54-.58,3.13-.87,4.77-.87,1.02,0,1.95,.07,2.8,.21,.85,.14,1.6,.33,2.27,.57,.66,.24,1.21,.52,1.63,.83,.62,.45,.93,.9,.93,1.36,0,.37-.12,.85-.36,1.44-.24,.59-.54,1.12-.91,1.57-.37,.45-.72,.68-1.06,.68-.14,0-.33-.06-.57-.17-.24-.11-.56-.24-.95-.38-.37-.14-.81-.26-1.34-.36-.52-.1-1.14-.15-1.84-.15-1.1,0-1.94,.13-2.5,.38-.57,.25-.95,.56-1.14,.93-.2,.37-.3,.72-.3,1.06,0,.76,.21,1.39,.64,1.89,.42,.49,.98,.91,1.65,1.25s1.43,.68,2.25,1.02c.88,.37,1.77,.77,2.67,1.21,.9,.44,1.74,.98,2.5,1.63,.76,.65,1.38,1.47,1.84,2.46,.47,.99,.7,2.2,.7,3.65,0,1.72-.28,3.18-.83,4.37-.55,1.19-1.29,2.14-2.23,2.86-.93,.72-1.96,1.24-3.1,1.57s-2.28,.49-3.43,.49Z"/></g></g></g></g></g></svg>